# xmcd
# 
# Track frame offsets:
#     150
#     14474
#     24784
#     43167
#     68432
#     83101
#     113801
#     125723
#     139663
#     158328
# 
# Disc length: 2502
# 
# Revision: 1
# Processed by: cddbd v1.5.2PL0 Copyright (c) Steve Scherf et al.
# Submitted via: fre:ac v1.0.31
# 
DISCID=7309c40a
DTITLE=Paul Rodgers - The Royal Sessions
DYEAR=2013
DGENRE=Rock/Pop
TTITLE0=I Thank You
TTITLE1=Down Don't Bother Me
TTITLE2=I Can't Stand The Rain
TTITLE3=I've Been Loving You Too Long (To Stop Now)
TTITLE4=That's How Strong My Love Is
TTITLE5=Walk On By
TTITLE6=Any Ole Way
TTITLE7=It's Growing
TTITLE8=Born Under A Bad Sign
TTITLE9=I've Got Dreams To Remember
EXTD=
EXTT0=
EXTT1=
EXTT2=
EXTT3=
EXTT4=
EXTT5=
EXTT6=
EXTT7=
EXTT8=
EXTT9=
PLAYORDER=
